<svg xmlns="http://www.w3.org/2000/svg" width="24" height="24" viewBox="0 0 24 24" fill="none" stroke="currentColor" stroke-width="2" stroke-linecap="round" stroke-linejoin="round" class="icon icon-tabler icons-tabler-outline icon-tabler-brand-qq"><path stroke="none" d="M0 0h24v24H0z" fill="none"/><path d="M8 10a4 4 0 1 1 8 0v1.5a6 6 0 0 0 .94 3.23l1.06 1.72a1 1 0 0 1 -.85 1.55h-2.15a3 3 0 0 1 -2.12 -.88l-.38 -.38a.5 .5 0 0 0 -.7 0l-.38 .38a3 3 0 0 1 -2.12 .88h-2.15a1 1 0 0 1 -.85 -1.55l1.06 -1.72a6 6 0 0 0 .94 -3.23v-1.5z"/><circle cx="10" cy="9" r=".5" fill="currentColor"/><circle cx="14" cy="9" r=".5" fill="currentColor"/></svg>
