<svg xmlns="http://www.w3.org/2000/svg" viewBox="0 0 64 64">
  <style>
    .bg { fill: #c85a2f; }
    .fg { fill: #faf4ec; }
    @media (prefers-color-scheme: dark) {
      .bg { fill: #faf4ec; }
      .fg { fill: #c85a2f; }
    }
  </style>
  <rect class="bg" width="64" height="64" rx="12"/>
  <!-- Southern Cross constellation + 7-pointed Commonwealth star nod -->
  <g class="fg">
    <!-- Alpha Crucis (Acrux) - bottom, 7-point star, largest -->
    <polygon points="32,50 33.1,45.2 36.9,48 34.5,43.7 39.5,43.9 35.2,41.4 39.5,39 34.5,39.2 36.9,35 33.1,37.8 32,33 30.9,37.8 27.1,35 29.5,39.2 24.5,39 28.8,41.4 24.5,43.9 29.5,43.7 27.1,48 30.9,45.2"/>
    <!-- Beta Crucis (Mimosa) - left, 7-point -->
    <polygon points="14,30 14.8,26.8 17.3,28.6 15.7,25.7 19.1,25.9 16.2,24.2 19.1,22.5 15.7,22.7 17.3,19.8 14.8,21.6 14,18.4 13.2,21.6 10.7,19.8 12.3,22.7 8.9,22.5 11.8,24.2 8.9,25.9 12.3,25.7 10.7,28.6 13.2,26.8"/>
    <!-- Gamma Crucis (Gacrux) - top -->
    <polygon points="32,14 32.7,11.2 34.9,12.8 33.5,10.3 36.5,10.4 33.9,9 36.5,7.6 33.5,7.7 34.9,5.2 32.7,6.8 32,4 31.3,6.8 29.1,5.2 30.5,7.7 27.5,7.6 30.1,9 27.5,10.4 30.5,10.3 29.1,12.8 31.3,11.2"/>
    <!-- Delta Crucis - right -->
    <polygon points="50,26 50.7,23.2 52.9,24.8 51.5,22.3 54.5,22.4 51.9,21 54.5,19.6 51.5,19.7 52.9,17.2 50.7,18.8 50,16 49.3,18.8 47.1,17.2 48.5,19.7 45.5,19.6 48.1,21 45.5,22.4 48.5,22.3 47.1,24.8 49.3,23.2"/>
    <!-- Epsilon Crucis - smallest, offset -->
    <polygon points="22,44 22.5,42.2 24,43.3 23.1,41.5 25,41.6 23.3,40.7 25,39.8 23.1,39.9 24,38.1 22.5,39.2 22,37.4 21.5,39.2 20,38.1 20.9,39.9 19,39.8 20.7,40.7 19,41.6 20.9,41.5 21.5,43.3 20,44.3"/>
  </g>
</svg>
